<svg width="488" height="124" viewBox="0 0 488 124" fill="none" xmlns="http://www.w3.org/2000/svg">
<path d="M17.8516 81.5859C14.5703 81.5859 11.6797 81.2604 9.17969 80.6094C6.70573 79.9323 4.80469 79.112 3.47656 78.1484C2.17448 77.1849 1.52344 76.2734 1.52344 75.4141C1.52344 74.737 1.77083 73.9036 2.26562 72.9141C2.78646 71.9245 3.39844 71.0781 4.10156 70.375C4.80469 69.6458 5.39062 69.2812 5.85938 69.2812C6.14583 69.2812 6.75781 69.5286 7.69531 70.0234C9.10156 70.7526 10.4297 71.3385 11.6797 71.7812C12.9557 72.224 14.4141 72.4453 16.0547 72.4453C17.8776 72.4453 19.4141 72.0938 20.6641 71.3906C21.9401 70.6615 22.5781 69.3984 22.5781 67.6016C22.5781 66.5599 22.2526 65.6615 21.6016 64.9062C20.9505 64.151 20.1172 63.513 19.1016 62.9922C18.0859 62.4714 16.7057 61.8594 14.9609 61.1562L11.875 59.8281C10 58.9167 8.38542 57.9141 7.03125 56.8203C5.70312 55.7266 4.60938 54.2812 3.75 52.4844C2.91667 50.6875 2.5 48.487 2.5 45.8828C2.5 42.7057 3.28125 40.0625 4.84375 37.9531C6.40625 35.8438 8.4375 34.2943 10.9375 33.3047C13.4375 32.3151 16.1198 31.8203 18.9844 31.8203C21.3281 31.8203 23.4505 32.0677 25.3516 32.5625C27.2526 33.0312 28.737 33.6432 29.8047 34.3984C30.8984 35.1536 31.4453 35.9089 31.4453 36.6641C31.4453 37.2891 31.237 38.0964 30.8203 39.0859C30.4297 40.0495 29.9349 40.8958 29.3359 41.625C28.737 42.3542 28.1771 42.7188 27.6562 42.7188C27.4219 42.7188 27.0052 42.5885 26.4062 42.3281C25.4427 41.9375 24.4661 41.625 23.4766 41.3906C22.513 41.1302 21.3281 41 19.9219 41C17.5 41 15.8203 41.3906 14.8828 42.1719C13.9453 42.9271 13.4766 43.8255 13.4766 44.8672C13.4766 46.0651 13.7891 47.0677 14.4141 47.875C15.0651 48.6823 15.8724 49.3464 16.8359 49.8672C17.8255 50.388 19.1927 50.987 20.9375 51.6641C23.5677 52.7839 25.7161 53.8516 27.3828 54.8672C29.0495 55.8568 30.4818 57.2891 31.6797 59.1641C32.9036 61.0391 33.5156 63.4349 33.5156 66.3516C33.5156 69.9193 32.7604 72.849 31.25 75.1406C29.7656 77.4062 27.8385 79.0469 25.4688 80.0625C23.125 81.0781 20.5859 81.5859 17.8516 81.5859ZM43.3203 81.1953C41.9141 81.1953 40.8594 81 40.1562 80.6094C39.4792 80.2188 39.1406 79.6589 39.1406 78.9297V34.4766C39.1406 32.9401 40.5339 32.1719 43.3203 32.1719H45.7422C47.1745 32.1719 48.2161 32.3672 48.8672 32.7578C49.5443 33.1484 49.8828 33.7214 49.8828 34.4766V78.9297C49.8828 80.4401 48.5026 81.1953 45.7422 81.1953H43.3203ZM72.2266 81.5859C68.9453 81.5859 66.0547 81.2604 63.5547 80.6094C61.0807 79.9323 59.1797 79.112 57.8516 78.1484C56.5495 77.1849 55.8984 76.2734 55.8984 75.4141C55.8984 74.737 56.1458 73.9036 56.6406 72.9141C57.1615 71.9245 57.7734 71.0781 58.4766 70.375C59.1797 69.6458 59.7656 69.2812 60.2344 69.2812C60.5208 69.2812 61.1328 69.5286 62.0703 70.0234C63.4766 70.7526 64.8047 71.3385 66.0547 71.7812C67.3307 72.224 68.7891 72.4453 70.4297 72.4453C72.2526 72.4453 73.7891 72.0938 75.0391 71.3906C76.3151 70.6615 76.9531 69.3984 76.9531 67.6016C76.9531 66.5599 76.6276 65.6615 75.9766 64.9062C75.3255 64.151 74.4922 63.513 73.4766 62.9922C72.4609 62.4714 71.0807 61.8594 69.3359 61.1562L66.25 59.8281C64.375 58.9167 62.7604 57.9141 61.4062 56.8203C60.0781 55.7266 58.9844 54.2812 58.125 52.4844C57.2917 50.6875 56.875 48.487 56.875 45.8828C56.875 42.7057 57.6562 40.0625 59.2188 37.9531C60.7812 35.8438 62.8125 34.2943 65.3125 33.3047C67.8125 32.3151 70.4948 31.8203 73.3594 31.8203C75.7031 31.8203 77.8255 32.0677 79.7266 32.5625C81.6276 33.0312 83.112 33.6432 84.1797 34.3984C85.2734 35.1536 85.8203 35.9089 85.8203 36.6641C85.8203 37.2891 85.612 38.0964 85.1953 39.0859C84.8047 40.0495 84.3099 40.8958 83.7109 41.625C83.112 42.3542 82.5521 42.7188 82.0312 42.7188C81.7969 42.7188 81.3802 42.5885 80.7812 42.3281C79.8177 41.9375 78.8411 41.625 77.8516 41.3906C76.888 41.1302 75.7031 41 74.2969 41C71.875 41 70.1953 41.3906 69.2578 42.1719C68.3203 42.9271 67.8516 43.8255 67.8516 44.8672C67.8516 46.0651 68.1641 47.0677 68.7891 47.875C69.4401 48.6823 70.2474 49.3464 71.2109 49.8672C72.2005 50.388 73.5677 50.987 75.3125 51.6641C77.9427 52.7839 80.0911 53.8516 81.7578 54.8672C83.4245 55.8568 84.8568 57.2891 86.0547 59.1641C87.2786 61.0391 87.8906 63.4349 87.8906 66.3516C87.8906 69.9193 87.1354 72.849 85.625 75.1406C84.1406 77.4062 82.2135 79.0469 79.8438 80.0625C77.5 81.0781 74.9609 81.5859 72.2266 81.5859ZM106.992 81.1172C104.206 81.1172 102.812 80.388 102.812 78.9297V41.4688H91.7969C91.0677 41.4688 90.5339 41.1953 90.1953 40.6484C89.8828 40.1016 89.7266 39.2161 89.7266 37.9922V35.8828C89.7266 34.6589 89.8828 33.7734 90.1953 33.2266C90.5339 32.6797 91.0677 32.4062 91.7969 32.4062H124.648C125.378 32.4062 125.898 32.6797 126.211 33.2266C126.549 33.7734 126.719 34.6589 126.719 35.8828V37.9922C126.719 39.2161 126.549 40.1016 126.211 40.6484C125.898 41.1953 125.378 41.4688 124.648 41.4688H113.594V78.9297C113.594 80.388 112.201 81.1172 109.414 81.1172H106.992ZM134.844 81C133.88 81 133.177 80.7786 132.734 80.3359C132.292 79.8932 132.07 79.1901 132.07 78.2266V35.1406C132.07 34.1771 132.292 33.487 132.734 33.0703C133.177 32.6276 133.88 32.4062 134.844 32.4062H160.273C161.003 32.4062 161.523 32.6797 161.836 33.2266C162.174 33.7734 162.344 34.6589 162.344 35.8828V37.9922C162.344 39.2161 162.174 40.1016 161.836 40.6484C161.523 41.1953 161.003 41.4688 160.273 41.4688H142.773V51.5469H158.398C159.128 51.5469 159.648 51.8203 159.961 52.3672C160.299 52.9141 160.469 53.7995 160.469 55.0234V57.1719C160.469 58.3958 160.299 59.2812 159.961 59.8281C159.648 60.375 159.128 60.6484 158.398 60.6484H142.773V71.8984H160.312C161.042 71.8984 161.562 72.1719 161.875 72.7188C162.214 73.2656 162.383 74.138 162.383 75.3359V77.5234C162.383 78.7474 162.214 79.6328 161.875 80.1797C161.562 80.7266 161.042 81 160.312 81H134.844ZM174.219 81.1172C171.432 81.1172 170.039 80.388 170.039 78.9297V34.4766C170.039 33.7214 170.378 33.1615 171.055 32.7969C171.732 32.4062 172.786 32.2109 174.219 32.2109H177.891C180.104 32.2109 181.549 32.849 182.227 34.125L193.906 54.8672L194.492 55.8828L195.078 54.6719L206.836 34.125C207.539 32.849 208.997 32.2109 211.211 32.2109H214.844C217.63 32.2109 219.023 32.9661 219.023 34.4766V78.9297C219.023 80.388 217.63 81.1172 214.844 81.1172H212.812C210.026 81.1172 208.633 80.388 208.633 78.9297V50.1406L208.359 50.0625L198.281 68.0703C197.682 68.9557 196.758 69.3984 195.508 69.3984H193.516C192.865 69.3984 192.318 69.2943 191.875 69.0859C191.432 68.8516 191.055 68.513 190.742 68.0703L180.625 50.0625L180.352 50.1406V78.9297C180.352 80.388 178.971 81.1172 176.211 81.1172H174.219ZM228.008 81.1172C225.169 81.1172 223.75 80.6094 223.75 79.5938C223.75 79.3073 223.841 78.8906 224.023 78.3438L239.336 33.6953C239.701 32.7057 241.016 32.2109 243.281 32.2109H246.875C249.141 32.2109 250.456 32.7057 250.82 33.6953L266.133 78.3438C266.263 78.8646 266.328 79.2812 266.328 79.5938C266.328 80.1146 266.042 80.5052 265.469 80.7656C264.922 81 264.049 81.1172 262.852 81.1172H259.805C258.711 81.1172 257.826 81.013 257.148 80.8047C256.497 80.5703 256.094 80.1927 255.938 79.6719L253.125 71.1953H236.758L233.945 79.6719C233.659 80.6354 232.591 81.1172 230.742 81.1172H228.008ZM250.156 62.0156L246.211 49.6719C245.977 49.0469 245.768 48.3307 245.586 47.5234C245.43 46.7161 245.286 45.9479 245.156 45.2188H244.883L244.727 46.0781C244.466 47.6146 244.167 48.8125 243.828 49.6719L239.727 62.0156H250.156ZM300.898 81.5859C297.617 81.5859 294.727 81.2604 292.227 80.6094C289.753 79.9323 287.852 79.112 286.523 78.1484C285.221 77.1849 284.57 76.2734 284.57 75.4141C284.57 74.737 284.818 73.9036 285.312 72.9141C285.833 71.9245 286.445 71.0781 287.148 70.375C287.852 69.6458 288.438 69.2812 288.906 69.2812C289.193 69.2812 289.805 69.5286 290.742 70.0234C292.148 70.7526 293.477 71.3385 294.727 71.7812C296.003 72.224 297.461 72.4453 299.102 72.4453C300.924 72.4453 302.461 72.0938 303.711 71.3906C304.987 70.6615 305.625 69.3984 305.625 67.6016C305.625 66.5599 305.299 65.6615 304.648 64.9062C303.997 64.151 303.164 63.513 302.148 62.9922C301.133 62.4714 299.753 61.8594 298.008 61.1562L294.922 59.8281C293.047 58.9167 291.432 57.9141 290.078 56.8203C288.75 55.7266 287.656 54.2812 286.797 52.4844C285.964 50.6875 285.547 48.487 285.547 45.8828C285.547 42.7057 286.328 40.0625 287.891 37.9531C289.453 35.8438 291.484 34.2943 293.984 33.3047C296.484 32.3151 299.167 31.8203 302.031 31.8203C304.375 31.8203 306.497 32.0677 308.398 32.5625C310.299 33.0312 311.784 33.6432 312.852 34.3984C313.945 35.1536 314.492 35.9089 314.492 36.6641C314.492 37.2891 314.284 38.0964 313.867 39.0859C313.477 40.0495 312.982 40.8958 312.383 41.625C311.784 42.3542 311.224 42.7188 310.703 42.7188C310.469 42.7188 310.052 42.5885 309.453 42.3281C308.49 41.9375 307.513 41.625 306.523 41.3906C305.56 41.1302 304.375 41 302.969 41C300.547 41 298.867 41.3906 297.93 42.1719C296.992 42.9271 296.523 43.8255 296.523 44.8672C296.523 46.0651 296.836 47.0677 297.461 47.875C298.112 48.6823 298.919 49.3464 299.883 49.8672C300.872 50.388 302.24 50.987 303.984 51.6641C306.615 52.7839 308.763 53.8516 310.43 54.8672C312.096 55.8568 313.529 57.2891 314.727 59.1641C315.951 61.0391 316.562 63.4349 316.562 66.3516C316.562 69.9193 315.807 72.849 314.297 75.1406C312.812 77.4062 310.885 79.0469 308.516 80.0625C306.172 81.0781 303.633 81.5859 300.898 81.5859ZM376.172 81C375.208 81 374.505 80.7786 374.062 80.3359C373.62 79.8932 373.398 79.1901 373.398 78.2266V34.4766C373.398 33.7214 373.737 33.1615 374.414 32.7969C375.091 32.4062 376.146 32.2109 377.578 32.2109H379.922C381.354 32.2109 382.409 32.4062 383.086 32.7969C383.763 33.1615 384.102 33.7214 384.102 34.4766V71.8984H399.57C400.299 71.8984 400.82 72.1719 401.133 72.7188C401.471 73.2656 401.641 74.138 401.641 75.3359V77.5234C401.641 78.7474 401.471 79.6328 401.133 80.1797C400.82 80.7266 400.299 81 399.57 81H376.172ZM406.445 81.1172C403.607 81.1172 402.188 80.6094 402.188 79.5938C402.188 79.3073 402.279 78.8906 402.461 78.3438L417.773 33.6953C418.138 32.7057 419.453 32.2109 421.719 32.2109H425.312C427.578 32.2109 428.893 32.7057 429.258 33.6953L444.57 78.3438C444.701 78.8646 444.766 79.2812 444.766 79.5938C444.766 80.1146 444.479 80.5052 443.906 80.7656C443.359 81 442.487 81.1172 441.289 81.1172H438.242C437.148 81.1172 436.263 81.013 435.586 80.8047C434.935 80.5703 434.531 80.1927 434.375 79.6719L431.562 71.1953H415.195L412.383 79.6719C412.096 80.6354 411.029 81.1172 409.18 81.1172H406.445ZM428.594 62.0156L424.648 49.6719C424.414 49.0469 424.206 48.3307 424.023 47.5234C423.867 46.7161 423.724 45.9479 423.594 45.2188H423.32L423.164 46.0781C422.904 47.6146 422.604 48.8125 422.266 49.6719L418.164 62.0156H428.594ZM453.75 81.1172C450.964 81.1172 449.57 80.388 449.57 78.9297V35.1406C449.57 34.1771 449.792 33.487 450.234 33.0703C450.677 32.6276 451.38 32.4062 452.344 32.4062H465.898C477.409 32.4062 483.164 36.7422 483.164 45.4141C483.164 48.0443 482.422 50.3099 480.938 52.2109C479.479 54.112 477.513 55.5312 475.039 56.4688V56.7422C475.898 57.1068 476.797 57.888 477.734 59.0859C478.698 60.2839 479.466 61.638 480.039 63.1484L486.172 78.4219C486.38 79.0469 486.484 79.4896 486.484 79.75C486.484 80.6615 485.104 81.1172 482.344 81.1172H479.492C477.174 81.1172 475.833 80.6354 475.469 79.6719L469.961 66.1172C469.44 65.0755 468.932 64.2682 468.438 63.6953C467.969 63.1224 467.305 62.6927 466.445 62.4062C465.586 62.0938 464.427 61.9375 462.969 61.9375H460.273V78.9297C460.273 80.388 458.88 81.1172 456.094 81.1172H453.75ZM466.836 52.7188C467.773 52.7188 468.659 52.4583 469.492 51.9375C470.326 51.3906 470.99 50.6615 471.484 49.75C471.979 48.8385 472.227 47.8359 472.227 46.7422C472.227 45.1276 471.693 43.8516 470.625 42.9141C469.583 41.9505 468.164 41.4688 466.367 41.4688H460.273V52.7188H466.836Z" fill="#F1F1F1"/>
<path d="M343.203 81.5859C338.464 81.5859 334.427 80.6224 331.094 78.6953C327.786 76.7682 325.26 73.9557 323.516 70.2578C321.797 66.5339 320.938 62.0026 320.938 56.6641C320.938 51.3516 321.797 46.8464 323.516 43.1484C325.26 39.4245 327.786 36.612 331.094 34.7109C334.427 32.7839 338.464 31.8203 343.203 31.8203C347.969 31.8203 352.005 32.7839 355.312 34.7109C358.646 36.612 361.172 39.4245 362.891 43.1484C364.609 46.8464 365.469 51.3516 365.469 56.6641C365.469 62.0026 364.609 66.5339 362.891 70.2578C361.172 73.9557 358.646 76.7682 355.312 78.6953C352.005 80.6224 347.969 81.5859 343.203 81.5859ZM343.203 72.4453C346.927 72.4453 349.74 71.1042 351.641 68.4219C353.542 65.7135 354.492 61.7943 354.492 56.6641C354.492 51.5339 353.542 47.6406 351.641 44.9844C349.74 42.3281 346.927 41 343.203 41C339.505 41 336.693 42.3411 334.766 45.0234C332.865 47.6797 331.914 51.5599 331.914 56.6641C331.914 61.7943 332.878 65.7135 334.805 68.4219C336.732 71.1042 339.531 72.4453 343.203 72.4453Z" fill="#FAA62C"/>
<path d="M51.27 14.0009C52.6628 17.9664 50.5778 22.3089 46.6144 23.7018C42.651 25.0946 38.3085 23.0096 36.9157 19.0462C35.5228 15.0807 37.6057 10.7382 41.5713 9.34533C45.5325 7.95036 49.8772 10.0354 51.27 14.0009Z" fill="#FCBE12"/>
<path d="M41.5692 9.34533C45.5326 7.95036 49.8751 10.0354 51.27 14.0009C52.6629 17.9664 50.5779 22.3089 46.6145 23.7018" fill="#F26B2A"/>
<path d="M47.1959 9.57748L43.1132 11.0129C42.7746 11.1322 42.5936 11.5049 42.7128 11.8456C42.8321 12.1864 43.2048 12.3653 43.5455 12.2439L45.8542 11.4346C46.1928 11.3153 46.5676 11.4942 46.6869 11.8329C46.8061 12.1736 46.6272 12.5463 46.2865 12.6656L44.5891 13.2619C44.2505 13.3812 44.078 13.7773 44.2079 14.1436C44.3378 14.512 44.7169 14.7122 45.0576 14.5951L48.5419 13.3705L48.7399 13.3002C49.0786 13.1831 49.464 13.3918 49.5961 13.7709C49.7281 14.15 49.562 14.5546 49.2234 14.6739L44.7978 16.2286C44.2718 16.4139 44.1717 16.7696 44.242 16.9655C44.3612 17.3041 44.7339 17.483 45.0725 17.3637L49.4108 15.8389L50.8952 15.3171L51.5661 15.0807C51.4958 14.7186 51.3978 14.3566 51.2722 13.9988C50.5481 11.9479 49.036 10.4017 47.1959 9.57748Z" fill="#BF3E26"/>
<path d="M41.1049 16.6055L36.6666 18.1666C36.7326 18.4605 36.8135 18.7544 36.9157 19.0462C37.2842 20.0919 37.8592 21.0055 38.5748 21.7573L41.3413 20.7862C41.6821 20.6669 41.8524 20.2708 41.7225 19.9045C41.5947 19.5382 41.2135 19.3358 40.8728 19.453L39.1754 20.0493C38.8346 20.1686 38.464 19.9897 38.3427 19.651C38.2234 19.3103 38.4023 18.9376 38.743 18.8183L41.5394 17.8365C41.8801 17.7173 42.0569 17.3446 41.9376 17.0038C41.8184 16.6652 41.4457 16.4863 41.1049 16.6055Z" fill="#F26B2A"/>
<path d="M43.4625 22.1258C43.3944 21.9298 43.0941 21.7126 42.5659 21.9L39.8633 22.8499C40.3063 23.1438 40.7791 23.3908 41.271 23.5868L43.0621 22.9585C43.4029 22.8371 43.5839 22.4665 43.4625 22.1258Z" fill="#F26B2A"/>
<path d="M33.4975 25.857C32.6073 26.1701 31.9641 26.2127 31.6957 25.8741C30.9546 24.9349 33.6998 21.9831 36.132 19.6702C36.2363 19.5722 36.4003 19.5765 36.4983 19.6787C36.5984 19.7831 36.592 19.9471 36.4898 20.0429C32.3943 23.9339 31.9321 25.3395 32.1004 25.5504C32.1047 25.5568 32.5668 26.0636 36.2108 23.9531C38.7025 22.5091 41.8183 20.3368 44.9852 17.8344C48.15 15.332 50.9846 12.8019 52.9653 10.7126C55.8638 7.65432 55.4762 7.08569 55.472 7.08143C55.3186 6.88549 53.9897 6.97068 49.7409 9.66478C49.6195 9.74145 49.4598 9.70525 49.3852 9.58598C49.3064 9.46672 49.3447 9.30698 49.464 9.22818C53.1612 6.88336 55.3207 6.05064 55.8787 6.75984C56.9947 8.17184 50.1668 14.3991 45.3068 18.2412C41.6139 21.161 36.3172 24.8646 33.4975 25.857Z" fill="#FCD6D6"/>
<path d="M31.7107 22.3366C31.7128 22.3345 31.7149 22.3302 31.7171 22.326C31.7682 22.2557 31.8193 22.1833 31.8747 22.113C31.9598 22.0001 32.1238 21.9767 32.2367 22.0619C32.3496 22.1471 32.3773 22.3068 32.2857 22.424C32.2324 22.4921 32.1813 22.5603 32.1345 22.6284C32.0514 22.7434 31.8896 22.769 31.7746 22.6859C31.6617 22.605 31.6361 22.4538 31.7107 22.3366ZM31.1548 23.2077C31.2251 23.0969 31.372 23.0586 31.4913 23.1204C31.617 23.1885 31.6659 23.344 31.5999 23.4696C31.5616 23.5442 31.5275 23.6166 31.4956 23.6847C31.4381 23.8168 31.2868 23.8764 31.1569 23.8189C31.0249 23.7614 30.9653 23.6102 31.0206 23.4782C31.0547 23.3994 31.0952 23.3142 31.142 23.229C31.1442 23.2226 31.1484 23.2162 31.1548 23.2077ZM32.5136 21.3229C32.5178 21.3122 32.5242 21.3037 32.5327 21.2973C32.5881 21.2313 32.6435 21.1653 32.701 21.0971C32.7947 20.9906 32.9587 20.9779 33.0652 21.0716C33.1738 21.1653 33.1844 21.3293 33.0907 21.4379C33.0353 21.5018 32.98 21.5678 32.9246 21.6317C32.8309 21.7403 32.669 21.7552 32.5604 21.6615C32.4603 21.5763 32.4433 21.4315 32.5136 21.3229ZM33.374 20.3581C33.3825 20.3453 33.3889 20.3326 33.3995 20.3219L33.5763 20.1302C33.6743 20.0259 33.8383 20.0216 33.9426 20.1175C34.0448 20.2154 34.0534 20.3794 33.9533 20.4838L33.7786 20.6712C33.6828 20.7777 33.5167 20.7819 33.4144 20.684C33.3207 20.6009 33.3058 20.4603 33.374 20.3581ZM34.2642 19.421C34.2748 19.4061 34.2855 19.3934 34.2983 19.3806L34.4793 19.1974C34.5794 19.0952 34.7434 19.0952 34.8456 19.1953C34.9478 19.2954 34.9478 19.4594 34.8477 19.5595L34.6667 19.7426C34.5666 19.8449 34.4026 19.847 34.3004 19.7469C34.211 19.6574 34.1982 19.5211 34.2642 19.421ZM31.1527 24.3471C31.2166 24.247 31.3422 24.2044 31.4594 24.2449C31.4998 24.2598 31.5573 24.2683 31.6233 24.2683C31.766 24.2704 31.881 24.3876 31.8789 24.5324C31.8747 24.6751 31.7575 24.7901 31.6148 24.7879C31.4892 24.7858 31.3742 24.7666 31.2783 24.7304C31.1442 24.6815 31.076 24.5324 31.1271 24.4003C31.1335 24.379 31.142 24.362 31.1527 24.3471ZM35.1842 18.5074C35.1949 18.4925 35.2055 18.4776 35.2204 18.4627L35.393 18.2966C35.4952 18.1986 35.6592 18.2007 35.7593 18.3029C35.8572 18.4073 35.8551 18.5713 35.7507 18.6693L35.5804 18.8332C35.4803 18.9333 35.3163 18.9312 35.2162 18.8269C35.1289 18.7417 35.1182 18.6075 35.1842 18.5074ZM32.4092 24.1661C32.439 24.1213 32.4838 24.083 32.5391 24.066C32.6158 24.0361 32.6946 24.0085 32.7755 23.9765C32.9097 23.9254 33.0588 23.9893 33.1099 24.1235C33.1631 24.2576 33.0971 24.4067 32.9651 24.4578C32.8778 24.4919 32.7947 24.5239 32.7138 24.5537C32.5796 24.6005 32.4326 24.5324 32.3837 24.3961C32.3538 24.3151 32.3666 24.2321 32.4092 24.1661ZM33.5976 23.6549C33.6232 23.6166 33.6572 23.5868 33.6998 23.5633C33.7765 23.5271 33.8532 23.4909 33.9277 23.4505C34.0555 23.3866 34.211 23.4356 34.277 23.5655C34.3409 23.6933 34.2919 23.8487 34.1641 23.9148C34.0832 23.9531 34.0065 23.9936 33.9298 24.0319C33.802 24.0937 33.6466 24.0404 33.5827 23.9126C33.5401 23.8253 33.5507 23.7295 33.5976 23.6549ZM34.7413 23.0501C34.7626 23.016 34.7945 22.9862 34.8328 22.967C34.9052 22.9266 34.9798 22.884 35.0543 22.8414C35.1778 22.7711 35.3376 22.8137 35.4079 22.9372C35.4781 23.0607 35.4355 23.2205 35.312 23.2907C35.2354 23.3333 35.1587 23.3781 35.0841 23.4185C34.9585 23.4888 34.8009 23.4441 34.7327 23.3184C34.6838 23.2332 34.6901 23.1289 34.7413 23.0501ZM35.8594 22.3984C35.8807 22.3664 35.9062 22.3388 35.9403 22.3196L36.1596 22.1854C36.281 22.1109 36.4408 22.1492 36.5174 22.2706C36.592 22.392 36.5536 22.5496 36.4323 22.6263L36.2108 22.7626C36.0894 22.835 35.9275 22.7967 35.8551 22.6753C35.7997 22.5858 35.8061 22.4793 35.8594 22.3984ZM36.9583 21.7126C36.9775 21.6828 37.0009 21.6551 37.0328 21.636L37.2501 21.4954C37.3693 21.4187 37.5291 21.4507 37.6079 21.5742C37.6845 21.6913 37.6526 21.8532 37.5312 21.9299L37.3118 22.0704C37.1904 22.1492 37.0307 22.113 36.954 21.9916C36.8987 21.9064 36.9029 21.7936 36.9583 21.7126ZM38.0359 21.0013C38.0551 20.9736 38.0785 20.9481 38.1083 20.9289L38.3213 20.7841C38.4385 20.7031 38.6003 20.7351 38.6812 20.8543C38.7622 20.9715 38.7324 21.1333 38.6131 21.2121L38.398 21.3548C38.2787 21.4358 38.119 21.4059 38.0402 21.2867C37.9784 21.1972 37.9827 21.0844 38.0359 21.0013ZM39.1029 20.2708C39.1221 20.2431 39.1434 20.2197 39.1732 20.1984L39.384 20.0514C39.4991 19.9705 39.6609 19.9982 39.744 20.1132C39.8249 20.2303 39.7993 20.3922 39.6822 20.4731L39.4671 20.6222C39.3521 20.7053 39.1881 20.6733 39.1072 20.5583C39.0476 20.4689 39.0476 20.356 39.1029 20.2708ZM40.1593 19.5211C40.1742 19.4935 40.1976 19.47 40.2232 19.453L40.4319 19.2997C40.5469 19.2166 40.7087 19.2421 40.7939 19.3572C40.877 19.4722 40.8514 19.634 40.7364 19.7192L40.5256 19.8704C40.4084 19.9556 40.2487 19.9279 40.1635 19.8129C40.1018 19.7235 40.1018 19.6063 40.1593 19.5211ZM41.2028 18.7544C41.2199 18.731 41.239 18.7076 41.2646 18.6884L41.4733 18.5351C41.5862 18.4478 41.748 18.4712 41.8354 18.5883C41.9205 18.7033 41.8971 18.8652 41.7821 18.9504L41.5755 19.1037C41.4605 19.191 41.2987 19.1676 41.2135 19.0526C41.1453 18.961 41.1453 18.8439 41.2028 18.7544ZM48.5653 7.8311C48.5844 7.80129 48.61 7.77573 48.6419 7.75444L48.8613 7.61387C48.9848 7.5372 49.1424 7.57341 49.2212 7.69267C49.2979 7.81407 49.2617 7.97379 49.1403 8.05046L48.9252 8.1889C48.8038 8.26557 48.6441 8.23149 48.5653 8.11223C48.5078 8.02278 48.5099 7.91416 48.5653 7.8311ZM42.2357 17.975C42.2507 17.9515 42.2698 17.9281 42.2954 17.9089L42.4998 17.7535C42.6127 17.6662 42.7746 17.6875 42.8619 17.8025C42.9492 17.9132 42.9279 18.0772 42.815 18.1624L42.6084 18.32C42.4934 18.4073 42.3337 18.386 42.2464 18.2731C42.1782 18.1837 42.1782 18.0644 42.2357 17.975ZM49.66 7.14321C49.6812 7.11126 49.7089 7.0857 49.743 7.0644L49.9645 6.93024C50.0859 6.8557 50.2456 6.89616 50.3202 7.01755C50.3947 7.14108 50.3542 7.3008 50.2307 7.37321L50.0114 7.50739C49.89 7.58193 49.7302 7.54146 49.6557 7.42007C49.6024 7.33062 49.6067 7.22201 49.66 7.14321ZM43.2601 17.1827C43.2729 17.1593 43.2921 17.138 43.3176 17.1188L43.52 16.9591C43.6328 16.8696 43.7947 16.8909 43.8841 17.0038C43.9715 17.1146 43.9523 17.2785 43.8416 17.368L43.6371 17.5277C43.5242 17.615 43.3602 17.5959 43.2729 17.483C43.2026 17.3935 43.2005 17.2722 43.2601 17.1827ZM44.2718 16.3777C44.2867 16.3542 44.3037 16.3351 44.3271 16.318L44.5273 16.1562C44.6381 16.0667 44.8021 16.0838 44.8915 16.1966C44.981 16.3074 44.9639 16.4693 44.851 16.5587L44.6508 16.7206C44.538 16.81 44.3761 16.793 44.2845 16.6822C44.2164 16.5928 44.2121 16.4693 44.2718 16.3777ZM50.7759 6.48725C50.7994 6.45317 50.8292 6.42336 50.8675 6.40419L51.0933 6.27641C51.2168 6.20613 51.3765 6.25085 51.4447 6.37651C51.5149 6.50216 51.4702 6.65976 51.3446 6.73004L51.1188 6.85569C50.9953 6.92597 50.8377 6.88338 50.7674 6.75773C50.7184 6.66828 50.7248 6.56605 50.7759 6.48725ZM45.2749 15.5599C45.2876 15.5386 45.3068 15.5194 45.3281 15.5024L45.5262 15.3362C45.6348 15.2468 45.7988 15.2596 45.8903 15.3703C45.9819 15.4789 45.9649 15.6429 45.8563 15.7324L45.6582 15.8985C45.5475 15.9901 45.3835 15.973 45.294 15.8623C45.2195 15.7771 45.2131 15.6514 45.2749 15.5599ZM51.9175 5.87815C51.9409 5.84195 51.975 5.81 52.0197 5.7887C52.1006 5.75037 52.1773 5.7099 52.2561 5.67369C52.386 5.61193 52.5393 5.66731 52.6011 5.79509C52.6629 5.925 52.6096 6.08047 52.4797 6.14224C52.4052 6.17844 52.3264 6.21464 52.2497 6.25298C52.1219 6.31687 51.9664 6.26576 51.9025 6.13585C51.86 6.05066 51.8685 5.95269 51.9175 5.87815ZM46.2652 14.7314C46.2801 14.7122 46.2971 14.6909 46.3163 14.676L46.5122 14.5078C46.6208 14.4162 46.7848 14.429 46.8785 14.5376C46.9701 14.6483 46.9573 14.8102 46.8487 14.9018L46.6507 15.07C46.542 15.1637 46.378 15.1488 46.2865 15.0402C46.2119 14.9486 46.2077 14.823 46.2652 14.7314ZM47.2491 13.888C47.2619 13.8667 47.2768 13.8497 47.2981 13.8348L47.4919 13.6644C47.5984 13.5707 47.7624 13.5814 47.8582 13.69C47.9519 13.7965 47.9413 13.9604 47.8326 14.0541L47.6367 14.2245C47.5302 14.3182 47.3662 14.3076 47.2725 14.2011C47.1937 14.1116 47.1873 13.9817 47.2491 13.888ZM53.0994 5.3585C53.1293 5.31378 53.1719 5.27544 53.2272 5.25627C53.3146 5.22433 53.3997 5.19451 53.4828 5.16895C53.617 5.12423 53.7661 5.19877 53.8086 5.33507C53.8512 5.46924 53.7767 5.61619 53.6425 5.66092C53.5659 5.68434 53.4892 5.71203 53.4083 5.74398C53.2741 5.79296 53.125 5.72481 53.076 5.59064C53.0441 5.50758 53.059 5.42452 53.0994 5.3585ZM48.2181 13.0298C48.2309 13.0127 48.2458 12.9935 48.2629 12.9786L48.4545 12.8061C48.5589 12.7103 48.725 12.7188 48.8187 12.8232C48.9145 12.9297 48.906 13.0936 48.8017 13.1895L48.6079 13.3641C48.5014 13.46 48.3374 13.4493 48.2437 13.345C48.1649 13.2555 48.1564 13.1256 48.2181 13.0298ZM49.1765 12.1608C49.1872 12.1438 49.1999 12.1268 49.217 12.1118L49.4065 11.9372C49.513 11.8392 49.6749 11.8456 49.7728 11.95C49.8708 12.0565 49.8644 12.2162 49.76 12.3163L49.5705 12.4931C49.4661 12.5889 49.3022 12.5846 49.2042 12.4782C49.1211 12.3887 49.1126 12.2588 49.1765 12.1608ZM50.1178 11.2749C50.1285 11.2578 50.1413 11.2429 50.1562 11.2301L50.3415 11.0512C50.4437 10.9533 50.6077 10.9554 50.7078 11.0576C50.8057 11.1577 50.8036 11.3238 50.7014 11.4239L50.514 11.605C50.4117 11.7029 50.2478 11.7008 50.1498 11.5965C50.0625 11.5049 50.0539 11.3728 50.1178 11.2749ZM54.3581 5.11784C54.4135 5.03265 54.5157 4.98367 54.6222 5.00497C54.7266 5.02626 54.8181 5.06034 54.8948 5.11145C54.9267 5.13275 54.9544 5.15405 54.9821 5.1796C55.0865 5.27757 55.0907 5.43943 54.9928 5.54378C54.8948 5.64814 54.7308 5.6524 54.6265 5.55443C54.6009 5.53526 54.5732 5.52248 54.5242 5.51397C54.3858 5.48841 54.2921 5.35211 54.3198 5.21155C54.3283 5.17534 54.3411 5.14553 54.3581 5.11784ZM51.0443 10.3676C51.0528 10.3548 51.0656 10.3399 51.0783 10.325L51.2594 10.1419C51.3616 10.0418 51.5235 10.0396 51.6257 10.1419C51.7258 10.2398 51.7258 10.4038 51.6278 10.5082L51.4447 10.6934C51.3424 10.7935 51.1806 10.7935 51.0783 10.6913C50.9889 10.6061 50.9761 10.4698 51.0443 10.3676ZM51.9451 9.44117C51.9537 9.43052 51.9622 9.41562 51.9728 9.40497L52.1475 9.21542C52.2454 9.11107 52.4094 9.10681 52.5138 9.20478C52.616 9.30274 52.6224 9.4646 52.5244 9.56896L52.3477 9.7585C52.2497 9.86286 52.0857 9.86712 51.9813 9.76915C51.8919 9.68396 51.8791 9.54553 51.9451 9.44117ZM52.8162 8.48493C52.8226 8.47428 52.8311 8.46576 52.8396 8.45512C52.8971 8.38909 52.9525 8.3252 53.0079 8.26131C53.0994 8.15269 53.2634 8.13992 53.3742 8.23362C53.4828 8.32733 53.4934 8.49132 53.4019 8.5978C53.3465 8.6617 53.289 8.72985 53.2315 8.79587C53.1378 8.90235 52.9738 8.913 52.8673 8.8193C52.7651 8.73411 52.748 8.59141 52.8162 8.48493ZM53.6425 7.48822C53.6468 7.48183 53.651 7.47757 53.6553 7.47118C53.7085 7.40303 53.7597 7.33488 53.8086 7.27099C53.896 7.15598 54.0557 7.13255 54.1707 7.21774C54.2857 7.30293 54.307 7.46479 54.2239 7.5798C54.1728 7.64795 54.1196 7.71823 54.0642 7.79064C53.9769 7.90351 53.8129 7.92481 53.7 7.83537C53.5935 7.75231 53.5701 7.6011 53.6425 7.48822ZM54.4944 6.19335C54.5647 6.08686 54.7074 6.04427 54.8267 6.10177C54.9544 6.16566 55.0077 6.32113 54.9438 6.44892C54.9055 6.52559 54.8629 6.60652 54.8139 6.68958C54.7415 6.81097 54.5839 6.85782 54.4603 6.78541C54.3368 6.71513 54.2921 6.5554 54.3624 6.43401C54.4071 6.35947 54.4433 6.28706 54.4774 6.21891C54.4838 6.21039 54.4902 6.20187 54.4944 6.19335Z" fill="#FBB687"/>
</svg>
