<svg width="80" height="80" viewBox="0 0 80 80" fill="none" xmlns="http://www.w3.org/2000/svg">
<path d="M53.4694 2.45661C74.0762 10.0278 84.6465 32.8609 77.0753 53.4769C69.5041 74.0837 46.6618 84.6447 26.055 77.0735C5.44819 69.5023 -5.12201 46.6601 2.44916 26.0533C10.0203 5.44644 32.8626 -5.11455 53.4694 2.45661Z" fill="#F6881F"/>
<path d="M33.9113 51.2322C18.8426 45.3446 8.806 48.7208 2.50436 53.6057C6.41414 64.1023 14.7029 72.9062 26.0458 77.0735C46.6526 84.6447 69.4949 74.0745 77.0661 53.4769C78.5104 49.5487 79.2924 45.5469 79.4672 41.582C68.4278 56.5219 61.1878 61.876 33.9113 51.2322Z" fill="#941A1D"/>
<path d="M77.9308 28.6659C74.5178 16.9642 65.7967 6.98275 53.4694 2.45661C32.8626 -5.11455 10.0203 5.44644 2.44917 26.0533C0.333287 31.8029 -0.356675 37.7274 0.176895 43.4495L5.83457 41.4256C10.2963 39.8249 14.942 39.0153 19.6338 39.0153C27.3797 39.0153 35.2453 41.26 43.0096 45.6757C46.7722 47.8192 50.6268 48.9047 54.4538 48.9047C67.6458 48.9047 73.8739 37.5526 77.9308 28.6659Z" fill="#FBB687"/>
<path d="M53.4694 2.45661C32.8626 -5.11455 10.0203 5.44644 2.44916 26.0533C2.07198 27.0928 1.74998 28.1323 1.4556 29.1811C12.1362 25.3541 29.376 22.953 49.44 34.3788C61.1326 41.0392 64.9044 24.4066 70.2769 14.2963C65.9531 9.10783 60.2586 4.94967 53.4694 2.45661Z" fill="#941A1D"/>
<path d="M5.48499 59.8521C9.97433 67.5337 17.0487 73.7617 26.055 77.0735C39.3023 81.9401 53.4602 79.2998 63.9016 71.3331C24.2611 69.76 39.7622 55.464 5.48499 59.8521Z" fill="#F6881F"/>
<path d="M66.6155 10.4602C62.9081 7.05635 58.4923 4.2965 53.4694 2.44741C39.7438 -2.5939 25.0247 0.414336 14.4913 9.07104C47.1586 8.73986 38.8975 15.5659 48.0969 17.9485C52.3655 19.0525 59.6607 15.2163 66.6155 10.4602Z" fill="#F6881F"/>
</svg>
