<svg width="47" height="47" viewBox="0 0 47 47" fill="none" xmlns="http://www.w3.org/2000/svg">
<path d="M46.5612 23.2852C46.5612 36.1468 36.1376 46.5704 23.276 46.5704C10.4144 46.5704 0 36.1468 0 23.2852C0 10.4236 10.4236 0 23.276 0C36.1376 0 46.5612 10.4236 46.5612 23.2852Z" fill="#F26B2A"/>
<path d="M29.2836 5.04161C16.422 5.04161 5.99841 15.4652 5.99841 28.3268C5.99841 34.0768 8.08683 39.33 11.5368 43.3872C14.9868 45.4112 18.998 46.5704 23.2852 46.5704C36.1376 46.5704 46.5704 36.1468 46.5704 23.2852C46.5704 17.5352 44.482 12.282 41.032 8.2248C37.582 6.2008 33.5616 5.04161 29.2836 5.04161Z" fill="#941A1D"/>
<path d="M23.0368 32.7704H2.02399C3.10039 35.1808 4.57239 37.3704 6.35719 39.2564H23.046C24.84 39.2564 26.2936 37.8028 26.2936 36.0088C26.2752 34.224 24.8308 32.7704 23.0368 32.7704Z" fill="#FCBE12"/>
<path d="M19.228 23.2852C19.228 25.0792 20.6816 26.5328 22.4756 26.5328H46.3404C46.4876 25.4748 46.5704 24.3892 46.5704 23.2852C46.5704 22.1812 46.4876 21.1048 46.3404 20.0376H22.4664C20.6724 20.0468 19.228 21.5004 19.228 23.2852Z" fill="#4A1112"/>
<path d="M23.0368 5.50162H8.2708C6.1272 7.31402 4.30561 9.51282 2.93481 11.9876H23.046C24.84 11.9876 26.2936 10.534 26.2936 8.74001C26.2752 6.95521 24.8308 5.50162 23.0368 5.50162Z" fill="#FCBE12"/>
</svg>
