<svg width="40" height="40" viewBox="0 0 40 40" fill="none" xmlns="http://www.w3.org/2000/svg">
<path d="M39.9832 19.9916C39.9832 31.0316 31.0316 39.9832 19.9916 39.9832C8.9516 39.9832 0 31.0316 0 19.9916C0 8.95161 8.9516 0 19.9916 0C31.0408 0.0092 39.9832 8.95161 39.9832 19.9916Z" fill="#FCD6D6"/>
<path d="M20.0008 0.00921631C31.0408 0.00921631 39.9924 8.96081 39.9924 20.0008C39.9924 31.0408 31.0408 39.9924 20.0008 39.9924" fill="#CFB0AF"/>
<path d="M29.4308 34.4816C27.646 34.4632 26.9744 35.42 26.9652 36.0824C26.956 37.0392 27.6 37.8488 28.4832 38.0972C30.4244 37.1864 32.1908 35.972 33.7272 34.5276L29.4308 34.4816Z" fill="#AE7149"/>
<path d="M8.5008 29.9552L2.7048 30.0104C3.4776 31.3444 4.3976 32.5772 5.4464 33.6904L8.9056 33.6628C10.0556 33.6536 10.9756 32.7152 10.9664 31.5652C10.9664 30.9028 10.2856 29.9368 8.5008 29.9552Z" fill="#AE7149"/>
<path d="M39.9832 19.9916C39.9832 19.0348 39.9096 18.0964 39.7808 17.1764L25.6312 17.0384C24.4812 17.0292 23.5428 17.9492 23.5336 19.09C23.5244 20.24 24.4444 21.1784 25.5852 21.1876L35.0152 21.2704C36.1652 21.2796 37.0852 22.218 37.076 23.368C37.0576 24.5088 36.1284 25.4288 34.9784 25.4196L29.256 25.3644C28.106 25.3552 27.1676 26.358 27.1584 27.5908C27.1492 28.8328 28.06 29.8448 29.21 29.854L37.3244 29.9276C39.0172 27.0204 39.9832 23.6164 39.9832 19.9916Z" fill="#AE7149"/>
<path d="M30.682 8.54682C30.6728 9.69682 31.5928 10.6352 32.7428 10.6444L37.6924 10.6904C36.984 9.34722 36.1284 8.10522 35.1532 6.96442L33.1476 6.94601C31.3628 6.91841 30.682 7.88442 30.682 8.54682Z" fill="#AE7149"/>
<path d="M16.8912 19.6972L1.9596 19.5592C1.1224 19.55 0.414001 18.9796 0.0920012 18.1792C0.0368012 18.7772 0.00920105 19.3844 0.00920105 20.0008C0.00920105 21.1048 0.101202 22.1904 0.276002 23.2484L2.6036 23.2668L17.2316 23.4048C18.3724 23.414 19.3108 22.494 19.32 21.3532C19.3292 20.6816 18.6668 19.7064 16.8912 19.6972Z" fill="#AE7149"/>
<path d="M0.487595 15.6492C0.873994 15.1984 1.40759 14.9132 2.00559 14.9224L2.66799 14.9316L14.4164 15.042C15.5664 15.0512 16.4956 14.0576 16.514 12.8156C16.5324 11.5736 15.6032 10.5616 14.4624 10.5524L8.73079 10.4972C7.58079 10.488 6.66079 9.54961 6.66999 8.39961C6.67919 7.25881 7.62679 6.33881 8.76759 6.34801L16.5508 6.42161C17.7008 6.44001 18.6392 5.52 18.6484 4.37001C18.6576 3.22001 17.7376 2.29081 16.5876 2.27241L10.8652 2.21721C5.67639 4.88521 1.79399 9.77961 0.487595 15.6492Z" fill="#AE7149"/>
</svg>
