<svg width="54" height="54" viewBox="0 0 54 54" fill="none" xmlns="http://www.w3.org/2000/svg">
<path d="M53.69 26.84C53.69 12.02 41.67 0 26.85 0C12.03 0 0.0100098 12.02 0.0100098 26.84C0.0100098 41.66 12.03 53.68 26.85 53.68C41.67 53.68 53.69 41.66 53.69 26.84Z" fill="#AED9F4"/>
<path d="M48.01 43.33C45.72 46.26 42.84 48.71 39.54 50.49H14.14C10.84 48.71 7.95998 46.27 5.66998 43.33H48.01Z" fill="#4C93CF"/>
<path d="M51.56 37.31H2.11996C1.16996 35.06 0.519961 32.66 0.209961 30.15H53.47C53.17 32.66 52.52 35.07 51.56 37.31Z" fill="#4C93CF"/>
<path d="M53.55 24.14H0.140015C0.390015 21.64 0.990035 19.23 1.88004 16.98H51.81C52.7 19.23 53.3 21.63 53.55 24.14Z" fill="#4C93CF"/>
<path d="M48.4799 10.96H5.20996C7.31996 8.07999 9.99995 5.63999 13.0699 3.79999H40.63C43.7 5.64999 46.3699 8.07999 48.4799 10.96Z" fill="#4C93CF"/>
<path d="M39.51 7.37997C37.12 7.40997 36.21 6.11998 36.2 5.22998C36.19 3.93998 37.06 2.86 38.24 2.53C40.84 3.75 43.21 5.37999 45.28 7.32999L39.51 7.37997Z" fill="#2F308F"/>
<path d="M11.41 13.46L3.62 13.39C4.66 11.6 5.88999 9.94998 7.29999 8.44998L11.95 8.48999C13.49 8.50999 14.73 9.76 14.71 11.31C14.71 12.2 13.8 13.49 11.41 13.46Z" fill="#2F308F"/>
<path d="M53.69 26.84C53.69 28.12 53.59 29.38 53.42 30.62L34.42 30.8C32.88 30.81 31.62 29.58 31.61 28.04C31.59 26.5 32.83 25.24 34.37 25.22L47.04 25.1C48.58 25.09 49.81 23.82 49.8 22.28C49.78 20.75 48.52 19.51 46.98 19.53L39.29 19.6C37.75 19.61 36.49 18.27 36.48 16.61C36.46 14.95 37.69 13.58 39.24 13.57L50.13 13.47C52.38 17.41 53.69 21.97 53.69 26.84Z" fill="#2F308F"/>
<path d="M41.19 42.21C41.17 40.66 42.41 39.41 43.96 39.39L50.61 39.33C49.66 41.13 48.51 42.8 47.2 44.33L44.51 44.36C42.11 44.39 41.2 43.1 41.19 42.21Z" fill="#2F308F"/>
<path d="M22.67 27.24L2.63 27.43C1.51 27.44 0.549995 28.2 0.119995 29.28C0.0499951 28.48 0 27.66 0 26.84C0 25.36 0.129985 23.9 0.359985 22.48L3.47998 22.45L23.13 22.27C24.67 22.26 25.93 23.49 25.94 25.03C25.95 25.92 25.06 27.22 22.67 27.24Z" fill="#2F308F"/>
<path d="M0.650024 32.67C1.17002 33.27 1.89003 33.66 2.69003 33.65L3.58002 33.64L19.36 33.49C20.9 33.48 22.16 34.82 22.17 36.48C22.19 38.14 20.95 39.51 19.41 39.52L11.72 39.59C10.18 39.61 8.94002 40.87 8.96002 42.41C8.98002 43.94 10.24 45.18 11.78 45.16L22.23 45.07C23.77 45.05 25.04 46.29 25.05 47.83C25.06 49.37 23.82 50.63 22.29 50.64L14.61 50.72C7.61002 47.13 2.39002 40.56 0.650024 32.67Z" fill="#2F308F"/>
<path d="M32.93 7.34C32.93 9.99 30.78 12.15 28.12 12.15C25.46 12.15 23.31 10 23.31 7.34C23.31 4.68 25.46 2.53 28.12 2.53C30.77 2.53 32.93 4.68 32.93 7.34Z" fill="#2F308F"/>
<path d="M21.07 21.66C21.07 23.54 19.54 25.07 17.66 25.07C15.78 25.07 14.25 23.54 14.25 21.66C14.25 19.78 15.78 18.25 17.66 18.25C19.54 18.25 21.07 19.78 21.07 21.66Z" fill="#2F308F"/>
<path d="M45.33 31.33C45.33 33.87 43.27 35.93 40.73 35.93C38.19 35.93 36.13 33.87 36.13 31.33C36.13 28.79 38.19 26.73 40.73 26.73C43.27 26.73 45.33 28.79 45.33 31.33Z" fill="#2F308F"/>
<path d="M36.23 45.52C36.23 47.34 34.75 48.82 32.93 48.82C31.11 48.82 29.63 47.34 29.63 45.52C29.63 43.7 31.11 42.22 32.93 42.22C34.75 42.21 36.23 43.69 36.23 45.52Z" fill="#2F308F"/>
</svg>
