<svg width="39" height="39" viewBox="0 0 39 39" fill="none" xmlns="http://www.w3.org/2000/svg">
<path d="M38.7872 19.3936C38.7872 30.1024 30.1024 38.7872 19.3936 38.7872C8.68479 38.7872 0 30.1024 0 19.3936C0 8.68483 8.68479 7.30257e-06 19.3936 7.30257e-06C30.1024 -0.0091927 38.7872 8.67563 38.7872 19.3936Z" fill="#F27E45"/>
<path d="M24.3892 4.18604C13.6804 4.18604 4.99561 12.8708 4.99561 23.5796C4.99561 28.3636 6.73439 32.7429 9.60479 36.1285C12.4844 37.8121 15.824 38.7872 19.3936 38.7872C30.1024 38.7872 38.7872 30.1025 38.7872 19.3936C38.7872 14.6096 37.0484 10.2304 34.178 6.84482C31.3076 5.16122 27.9588 4.18604 24.3892 4.18604Z" fill="#FBB687"/>
<path d="M37.904 25.1989C37.8396 24.9965 37.7844 24.8033 37.7016 24.6009C34.3896 16.5877 30.0104 21.7856 29.8724 21.9052C29.8724 21.712 30.7832 14.9776 22.6228 17.9124C15.7504 20.378 16.6152 31.4825 17.9952 38.7413C18.4552 38.7781 18.9152 38.7965 19.3844 38.7965C28.0784 38.7873 35.4384 33.0741 37.904 25.1989Z" fill="#FEE0CC"/>
<path d="M25.4472 3.81801L16.698 0.184021C13.5608 0.616421 10.672 1.80323 8.20639 3.55123L22.4112 9.44843C25.2264 10.626 26.9376 9.53122 27.37 8.48242C28.1244 6.67002 27.2596 4.58161 25.4472 3.81801Z" fill="#7D5235"/>
<path d="M14.8672 34.914C15.6216 33.0924 14.7568 31.004 12.926 30.2496L0.901611 25.254C2.57601 30.5532 6.46762 34.868 11.4908 37.1128C12.9168 37.1312 14.2876 36.3124 14.8672 34.914Z" fill="#7D5235"/>
<path d="M15.3732 15.1524L2.53001 9.82559C1.01201 12.4936 0.119602 15.548 0.0184021 18.814C0.966003 18.2068 2.18959 18.0596 3.31199 18.5196L12.4108 22.2916C14.2232 23.046 16.376 22.0616 17.1856 20.0928C18.0044 18.124 17.1948 15.916 15.3732 15.1524Z" fill="#7D5235"/>
</svg>
