<svg width="108" height="92" viewBox="0 0 108 92" fill="none" xmlns="http://www.w3.org/2000/svg">
<path d="M87.5658 38.8836C93.5828 56.0146 84.5757 74.774 67.4539 80.791C50.3321 86.808 31.5726 77.8009 25.5556 60.6791C19.5386 43.5481 28.5365 24.7887 45.6675 18.7717C62.7801 12.7455 81.5488 21.7526 87.5658 38.8836Z" fill="#FCBE12"/>
<path d="M45.6583 18.7717C62.7801 12.7455 81.5395 21.7526 87.5658 38.8836C93.5828 56.0146 84.5757 74.774 67.4539 80.791" fill="#F26B2A"/>
<path d="M69.9655 19.7745L52.3285 25.9755C50.8657 26.4908 50.0836 28.1008 50.5989 29.5729C51.1141 31.0449 52.7241 31.8177 54.1962 31.2933L64.1693 27.7972C65.6322 27.282 67.2514 28.0548 67.7667 29.5177C68.2819 30.9897 67.509 32.5998 66.037 33.115L58.7043 35.6911C57.2415 36.2063 56.4963 37.9176 57.0575 39.5C57.6187 41.0917 59.2564 41.9565 60.7284 41.4505L75.7801 36.1603L76.6358 35.8567C78.0986 35.3507 79.7639 36.2523 80.3343 37.89C80.9047 39.5276 80.1871 41.2757 78.7242 41.7909L59.606 48.5071C57.3335 49.3076 56.9011 50.844 57.2047 51.6904C57.7199 53.1533 59.33 53.9261 60.7928 53.4109L79.5339 46.8235L85.9465 44.5694L88.8446 43.5482C88.541 41.9841 88.1178 40.4201 87.5749 38.8744C84.4468 30.0145 77.9146 23.3351 69.9655 19.7745Z" fill="#BF3E26"/>
<path d="M43.6526 50.1356L24.4792 56.8794C24.7644 58.149 25.114 59.4187 25.5556 60.6791C27.1473 65.1965 29.6313 69.1434 32.7226 72.3911L44.6739 68.1958C46.1459 67.6806 46.8819 65.9693 46.3207 64.3868C45.7687 62.8044 44.1218 61.9304 42.6498 62.4364L35.3171 65.0125C33.8451 65.5277 32.2442 64.7549 31.7198 63.292C31.2046 61.82 31.9774 60.2099 33.4495 59.6947L45.5295 55.4533C47.0015 54.9381 47.7652 53.3281 47.2499 51.856C46.7347 50.3932 45.1247 49.6203 43.6526 50.1356Z" fill="#F26B2A"/>
<path d="M53.8374 73.9828C53.543 73.1363 52.2457 72.1979 49.9641 73.0075L38.2889 77.1109C40.2025 78.3806 42.245 79.4478 44.3703 80.2942L52.1077 77.5801C53.5798 77.0557 54.3618 75.4548 53.8374 73.9828Z" fill="#F26B2A"/>
<path d="M10.7891 90.1018C6.94337 91.4542 4.16488 91.6382 3.00564 90.1753C-0.196073 86.118 11.6631 73.3664 22.1699 63.3748C22.6207 62.9516 23.3291 62.97 23.7524 63.4116C24.1848 63.8624 24.1572 64.5709 23.7156 64.9849C6.02334 81.7939 4.02687 87.8661 4.7537 88.7769C4.7721 88.8045 6.76857 90.9942 22.5103 81.8767C33.2747 75.6389 46.7347 66.2545 60.4156 55.4442C74.0873 44.6338 86.3329 33.7038 94.8892 24.6783C107.411 11.4666 105.736 9.01016 105.718 8.99176C105.056 8.14533 99.3146 8.51335 80.9599 20.1518C80.4355 20.483 79.7455 20.3266 79.4235 19.8113C79.0831 19.2961 79.2487 18.6061 79.7639 18.2657C95.7356 8.13612 105.065 4.5388 107.475 7.60251C112.296 13.7023 82.8 40.604 61.8049 57.2014C45.8515 69.8151 22.9703 85.8144 10.7891 90.1018Z" fill="#FCD6D6"/>
<path d="M3.07004 74.8936C3.07924 74.8844 3.08844 74.866 3.09764 74.8476C3.31845 74.544 3.53926 74.2312 3.77846 73.9276C4.14648 73.44 4.8549 73.3388 5.34252 73.7068C5.83013 74.0748 5.94974 74.7648 5.55413 75.2709C5.32412 75.5653 5.10331 75.8597 4.9009 76.1541C4.54209 76.6509 3.84287 76.7613 3.34605 76.4025C2.85843 76.0529 2.74803 75.3997 3.07004 74.8936ZM0.668757 78.6566C0.972367 78.1781 1.60719 78.0125 2.12241 78.2793C2.66523 78.5738 2.87683 79.2454 2.59162 79.7882C2.42602 80.1102 2.27881 80.423 2.14081 80.7174C1.8924 81.2878 1.23918 81.5455 0.677957 81.297C0.107538 81.0486 -0.150071 80.3954 0.0891369 79.825C0.236342 79.4846 0.411148 79.1166 0.613555 78.7486C0.622755 78.721 0.641156 78.6934 0.668757 78.6566ZM6.53856 70.5143C6.55696 70.4683 6.58456 70.4315 6.62136 70.4039C6.86057 70.1187 7.09978 69.8335 7.34819 69.539C7.753 69.079 8.46142 69.0238 8.92144 69.4286C9.39066 69.8335 9.43666 70.5419 9.03185 71.0111C8.79264 71.2871 8.55343 71.5723 8.31422 71.8483C7.90941 72.3175 7.21018 72.3819 6.74097 71.9771C6.30855 71.6091 6.23495 70.9835 6.53856 70.5143ZM10.2555 66.3465C10.2923 66.2913 10.3199 66.2361 10.3659 66.1901L11.1295 65.3621C11.5527 64.9113 12.2612 64.8929 12.712 65.3069C13.1536 65.7301 13.1904 66.4385 12.758 66.8893L12.0035 67.699C11.5895 68.159 10.8719 68.1774 10.4303 67.7542C10.0255 67.3954 9.96108 66.7881 10.2555 66.3465ZM14.1012 62.2984C14.1472 62.234 14.1932 62.1788 14.2484 62.1236L15.0305 61.3323C15.4629 60.8907 16.1713 60.8908 16.6129 61.3232C17.0545 61.7556 17.0545 62.464 16.6221 62.8964L15.8401 63.6877C15.4077 64.1293 14.6992 64.1385 14.2576 63.706C13.8712 63.3196 13.816 62.7308 14.1012 62.2984ZM0.659557 83.5787C0.935566 83.1463 1.47838 82.9623 1.9844 83.1371C2.15921 83.2015 2.40762 83.2383 2.69283 83.2383C3.30925 83.2475 3.80606 83.7535 3.79686 84.3792C3.77846 84.9956 3.27245 85.4924 2.65603 85.4832C2.11321 85.474 1.61639 85.3912 1.20238 85.2348C0.622755 85.0232 0.328345 84.3792 0.549153 83.8087C0.576754 83.7167 0.613555 83.6431 0.659557 83.5787ZM18.0758 58.3515C18.1218 58.2871 18.1678 58.2227 18.2322 58.1583L18.9774 57.4406C19.419 57.0174 20.1274 57.0266 20.5598 57.4682C20.9831 57.919 20.9739 58.6275 20.523 59.0507L19.787 59.7591C19.3546 60.1915 18.6462 60.1823 18.2138 59.7315C17.8365 59.3635 17.7905 58.7839 18.0758 58.3515ZM6.08774 82.7967C6.21655 82.6035 6.40975 82.4379 6.64896 82.3643C6.98017 82.2355 7.32059 82.1159 7.6702 81.9779C8.24982 81.757 8.89384 82.0331 9.11465 82.6127C9.34466 83.1923 9.05945 83.8363 8.48903 84.0571C8.11181 84.2043 7.753 84.3424 7.40339 84.4712C6.82377 84.6736 6.18895 84.3791 5.97734 83.7903C5.84854 83.4407 5.90374 83.0819 6.08774 82.7967ZM11.2215 80.5886C11.3319 80.423 11.4791 80.2942 11.6631 80.193C11.9943 80.0366 12.3256 79.8802 12.6476 79.7054C13.1996 79.4294 13.8712 79.641 14.1564 80.2022C14.4324 80.7542 14.2208 81.4259 13.6688 81.7111C13.3192 81.8767 12.988 82.0515 12.6568 82.2171C12.1048 82.4839 11.4331 82.2539 11.1571 81.7019C10.9731 81.3246 11.0191 80.9106 11.2215 80.5886ZM16.1621 77.9757C16.2541 77.8285 16.3921 77.6997 16.5577 77.6169C16.8705 77.4421 17.1925 77.2581 17.5145 77.0741C18.0482 76.7705 18.7382 76.9545 19.0418 77.4881C19.3454 78.0217 19.1614 78.7117 18.6278 79.0154C18.2966 79.1994 17.9654 79.3926 17.6433 79.5674C17.1005 79.871 16.4197 79.6778 16.1253 79.135C15.9137 78.767 15.9413 78.3162 16.1621 77.9757ZM20.9923 75.1604C21.0843 75.0224 21.1947 74.9028 21.3419 74.82L22.2895 74.2404C22.8139 73.9184 23.5039 74.084 23.8352 74.6084C24.1572 75.1328 23.9916 75.8137 23.4671 76.1449L22.5103 76.7337C21.9859 77.0465 21.2867 76.8809 20.9739 76.3565C20.7346 75.9701 20.7623 75.51 20.9923 75.1604ZM25.7396 72.1979C25.8224 72.0691 25.9236 71.9495 26.0616 71.8667L27.0001 71.2595C27.5153 70.9283 28.2053 71.0663 28.5457 71.5999C28.8769 72.1059 28.7389 72.8052 28.2145 73.1364L27.2669 73.7436C26.7425 74.084 26.0524 73.9276 25.7212 73.4032C25.482 73.0352 25.5004 72.5476 25.7396 72.1979ZM30.395 69.125C30.4778 69.0054 30.579 68.895 30.7078 68.8122L31.6278 68.1866C32.1338 67.837 32.8331 67.975 33.1827 68.4902C33.5323 68.9962 33.4035 69.6955 32.8883 70.0359L31.959 70.6523C31.4438 71.0019 30.7538 70.8731 30.4134 70.3579C30.1466 69.9715 30.165 69.4838 30.395 69.125ZM35.0043 65.9693C35.0871 65.8497 35.1791 65.7485 35.308 65.6565L36.2188 65.0217C36.7156 64.6721 37.4148 64.7917 37.7736 65.2885C38.1232 65.7945 38.0128 66.4937 37.5068 66.8434L36.5776 67.4874C36.0808 67.8462 35.3724 67.7082 35.0227 67.2114C34.7651 66.825 34.7651 66.3373 35.0043 65.9693ZM39.5677 62.7308C39.6321 62.6112 39.7333 62.51 39.8437 62.4364L40.7453 61.774C41.2422 61.4152 41.9414 61.5256 42.3094 62.0224C42.6682 62.5192 42.5578 63.2184 42.061 63.5864L41.1502 64.2396C40.6441 64.6077 39.9541 64.4881 39.5861 63.9913C39.3193 63.6048 39.3193 63.0988 39.5677 62.7308ZM44.0759 59.4187C44.1495 59.3175 44.2323 59.2163 44.3427 59.1335L45.2443 58.4711C45.7319 58.0938 46.4311 58.1951 46.8083 58.7011C47.1764 59.1979 47.0752 59.8971 46.5783 60.2651L45.6859 60.9276C45.1891 61.3048 44.4899 61.2035 44.1219 60.7067C43.8274 60.3111 43.8274 59.8051 44.0759 59.4187ZM75.8814 12.2303C75.9642 12.1015 76.0746 11.9911 76.2126 11.8991L77.1602 11.2918C77.6938 10.9606 78.3746 11.117 78.715 11.6322C79.0463 12.1567 78.8899 12.8467 78.3654 13.1779L77.4362 13.7759C76.9118 14.1071 76.2218 13.9599 75.8814 13.4447C75.6329 13.0583 75.6422 12.5891 75.8814 12.2303ZM48.538 56.0514C48.6024 55.9502 48.6852 55.849 48.7956 55.7662L49.6788 55.0945C50.1665 54.7173 50.8657 54.8093 51.2429 55.3061C51.6201 55.7846 51.5281 56.493 51.0405 56.861L50.1481 57.5418C49.6512 57.919 48.9612 57.827 48.584 57.3394C48.2896 56.953 48.2896 56.4378 48.538 56.0514ZM80.6103 9.25858C80.7023 9.12057 80.8219 9.01015 80.9691 8.91814L81.926 8.33855C82.4504 8.01654 83.1404 8.19135 83.4624 8.71576C83.7844 9.24938 83.6096 9.93939 83.076 10.2522L82.1284 10.8318C81.604 11.1538 80.9139 10.979 80.5919 10.4546C80.3619 10.0682 80.3803 9.59899 80.6103 9.25858ZM52.9634 52.6289C53.0186 52.5277 53.1014 52.4357 53.2118 52.3529L54.0858 51.6628C54.5734 51.2764 55.2726 51.3684 55.6591 51.856C56.0363 52.3344 55.9535 53.0429 55.475 53.4293L54.5918 54.1193C54.1042 54.4965 53.3958 54.4137 53.0186 53.9261C52.715 53.5397 52.7057 53.0153 52.9634 52.6289ZM57.3335 49.1511C57.3979 49.0499 57.4715 48.9671 57.5727 48.8935L58.4375 48.1943C58.916 47.8079 59.6244 47.8815 60.0108 48.3691C60.3972 48.8475 60.3236 49.5468 59.836 49.9332L58.9712 50.6324C58.4836 51.0188 57.7843 50.9452 57.3887 50.4668C57.0943 50.0804 57.0759 49.5467 57.3335 49.1511ZM85.4313 6.42486C85.5325 6.27766 85.6613 6.14887 85.8269 6.06607L86.8021 5.51404C87.3357 5.21043 88.0258 5.40364 88.3202 5.94646C88.6238 6.48928 88.4306 7.1701 87.8878 7.47371L86.9125 8.01653C86.3789 8.32014 85.6981 8.13614 85.3945 7.59332C85.1829 7.20691 85.2105 6.76528 85.4313 6.42486ZM61.6669 45.6182C61.7221 45.5262 61.8049 45.4434 61.8969 45.3698L62.7525 44.6522C63.2217 44.2658 63.9301 44.321 64.3258 44.7994C64.7214 45.2686 64.6478 45.977 64.1786 46.3634L63.3229 47.0811C62.8445 47.4767 62.1361 47.4031 61.7497 46.9247C61.4277 46.5567 61.4001 46.0138 61.6669 45.6182ZM90.3627 3.79359C90.4639 3.63718 90.6111 3.49917 90.8043 3.40716C91.1539 3.24156 91.4851 3.06674 91.8255 2.91034C92.3867 2.64353 93.0491 2.88274 93.316 3.43476C93.5828 3.99598 93.3528 4.66761 92.7915 4.93442C92.4695 5.09082 92.1291 5.24722 91.7979 5.41282C91.2459 5.68883 90.5743 5.46804 90.2982 4.90682C90.1142 4.53881 90.151 4.1156 90.3627 3.79359ZM65.945 42.0393C66.0094 41.9565 66.083 41.8645 66.1658 41.8001L67.0122 41.0733C67.4815 40.6776 68.1899 40.7329 68.5947 41.2021C68.9903 41.6805 68.9351 42.3797 68.4659 42.7753L67.6103 43.5022C67.1411 43.907 66.4326 43.8426 66.037 43.3733C65.715 42.9777 65.6966 42.4349 65.945 42.0393ZM70.1956 38.396C70.2508 38.304 70.3152 38.2304 70.4072 38.166L71.2444 37.4299C71.7044 37.0251 72.4128 37.0711 72.8269 37.5403C73.2317 38.0004 73.1857 38.7088 72.7164 39.1136L71.87 39.8496C71.41 40.2544 70.7016 40.2084 70.2968 39.7484C69.9564 39.362 69.9287 38.8008 70.1956 38.396ZM95.4688 1.54871C95.5976 1.3555 95.7816 1.18989 96.0209 1.10708C96.3981 0.969078 96.7661 0.84027 97.1249 0.729867C97.7045 0.53666 98.3485 0.85867 98.5325 1.44749C98.7165 2.02711 98.3945 2.66193 97.8149 2.85514C97.4837 2.95634 97.1525 3.07596 96.8029 3.21396C96.2233 3.42557 95.5792 3.13116 95.3676 2.55154C95.2296 2.19273 95.294 1.83392 95.4688 1.54871ZM74.3817 34.6882C74.4369 34.6146 74.5013 34.5318 74.5749 34.4674L75.4029 33.7222C75.8538 33.3082 76.5714 33.345 76.9762 33.7958C77.3902 34.2558 77.3534 34.9642 76.9026 35.3783L76.0654 36.1327C75.6053 36.5467 74.8969 36.5007 74.4921 36.0499C74.1517 35.6635 74.1149 35.1023 74.3817 34.6882ZM78.5218 30.9345C78.5678 30.8609 78.623 30.7873 78.6966 30.7229L79.5155 29.9685C79.9755 29.5453 80.6747 29.5729 81.0979 30.0237C81.5211 30.4837 81.4935 31.1737 81.0427 31.6061L80.2239 32.3698C79.7731 32.7838 79.0647 32.7654 78.6414 32.3054C78.2826 31.9189 78.2458 31.3577 78.5218 30.9345ZM82.5884 27.1072C82.6344 27.0336 82.6896 26.9692 82.754 26.914L83.5544 26.1411C83.996 25.7179 84.7045 25.7271 85.1369 26.1687C85.5601 26.6012 85.5509 27.3188 85.1093 27.7512L84.2996 28.5332C83.858 28.9564 83.1496 28.9473 82.7264 28.4964C82.3492 28.1008 82.3124 27.5304 82.5884 27.1072ZM100.906 0.509068C101.145 0.141055 101.587 -0.0705508 102.047 0.0214524C102.498 0.113456 102.893 0.260661 103.225 0.481468C103.363 0.573471 103.482 0.665481 103.602 0.775885C104.053 1.1991 104.071 1.89832 103.648 2.34913C103.225 2.79995 102.516 2.81834 102.065 2.39512C101.955 2.31232 101.835 2.25711 101.624 2.22031C101.026 2.10991 100.621 1.52111 100.741 0.913884C100.777 0.757479 100.833 0.628672 100.906 0.509068ZM86.5905 23.1878C86.6273 23.1326 86.6825 23.0683 86.7377 23.0039L87.5198 22.2126C87.9614 21.7802 88.6606 21.771 89.1022 22.2126C89.5346 22.6358 89.5346 23.3443 89.1114 23.7951L88.3202 24.5955C87.8786 25.0279 87.1793 25.0279 86.7377 24.5863C86.3513 24.2183 86.2961 23.6295 86.5905 23.1878ZM90.4823 19.1857C90.5191 19.1397 90.5559 19.0753 90.6019 19.0293L91.3563 18.2105C91.7795 17.7597 92.4879 17.7413 92.9387 18.1645C93.3804 18.5877 93.408 19.2869 92.9847 19.7377L92.2211 20.5566C91.7979 21.0074 91.0895 21.0258 90.6387 20.6026C90.2522 20.2345 90.197 19.6365 90.4823 19.1857ZM94.2452 15.0548C94.2728 15.0088 94.3096 14.972 94.3464 14.926C94.5948 14.6408 94.834 14.3648 95.0732 14.0887C95.4688 13.6195 96.1773 13.5643 96.6557 13.9691C97.1249 14.374 97.1709 15.0824 96.7753 15.5424C96.5361 15.8184 96.2877 16.1128 96.0392 16.398C95.6344 16.858 94.926 16.904 94.466 16.4992C94.0244 16.1312 93.9508 15.5148 94.2452 15.0548ZM97.8149 10.749C97.8333 10.7214 97.8517 10.703 97.8701 10.6754C98.1001 10.381 98.3209 10.0866 98.5325 9.81058C98.9097 9.31376 99.5998 9.21255 100.097 9.58057C100.593 9.94858 100.685 10.6478 100.327 11.1446C100.106 11.439 99.8758 11.7426 99.6366 12.0555C99.2594 12.5431 98.5509 12.6351 98.0633 12.2487C97.6033 11.8899 97.5021 11.2366 97.8149 10.749ZM101.495 5.15522C101.799 4.6952 102.415 4.5112 102.93 4.75961C103.482 5.03562 103.712 5.70725 103.436 6.25927C103.271 6.59048 103.087 6.94009 102.875 7.29891C102.562 7.82332 101.881 8.02571 101.348 7.7129C100.814 7.40929 100.621 6.71927 100.925 6.19486C101.118 5.87285 101.274 5.56005 101.421 5.26564C101.449 5.22884 101.477 5.19202 101.495 5.15522Z" fill="#FBB687"/>
</svg>
