<svg width="356" height="348" viewBox="0 0 356 348" fill="none" xmlns="http://www.w3.org/2000/svg">
<g filter="url(#filter0_d_3_24607)">
<path d="M113.24 195.68C111.73 190.1 110.93 184.23 110.93 178.18C110.93 166.44 113.95 155.4 119.26 145.78C129 128.14 146.43 115.31 167 111.85" stroke="#FAA62C" stroke-width="2.975" stroke-miterlimit="10" stroke-linecap="round" stroke-linejoin="round"/>
<path d="M244.68 188.31C239.78 220.6 211.83 245.43 178.18 245.43C151.49 245.43 128.39 229.81 117.53 207.23" stroke="#FAA62C" stroke-width="2.975" stroke-miterlimit="10" stroke-linecap="round" stroke-linejoin="round"/>
<path d="M178.18 110.92C215.27 110.92 245.44 141.09 245.44 178.18" stroke="#FAA62C" stroke-width="2.975" stroke-miterlimit="10" stroke-linecap="round" stroke-linejoin="round"/>
<path d="M102 178.18C102 151.69 115.59 128.31 136.17 114.65" stroke="#C62026" stroke-width="2.975" stroke-miterlimit="10" stroke-linecap="round" stroke-linejoin="round"/>
<path d="M143.54 246.02C129.22 238.68 117.51 226.93 110.22 212.58" stroke="#C62026" stroke-width="2.975" stroke-miterlimit="10" stroke-linecap="round" stroke-linejoin="round"/>
<path d="M229.32 234.6C226.14 237.48 222.72 240.1 219.1 242.42" stroke="#C62026" stroke-width="2.975" stroke-miterlimit="10" stroke-linecap="round" stroke-linejoin="round"/>
<path d="M188.33 102.67C202.74 104.59 215.89 110.56 226.6 119.4C243.55 133.38 254.37 154.54 254.37 178.18C254.37 193.59 249.77 207.95 241.87 219.95" stroke="#C62026" stroke-width="2.975" stroke-miterlimit="10" stroke-linecap="round" stroke-linejoin="round"/>
<path d="M143.5 110.36C153.91 105.01 165.7 102 178.18 102" stroke="#C62026" stroke-width="2.975" stroke-miterlimit="10" stroke-linecap="round" stroke-linejoin="round"/>
<path d="M241.08 178.18C241.08 212.92 212.92 241.08 178.18 241.08C143.44 241.08 115.29 212.92 115.29 178.18C115.29 143.44 143.45 115.28 178.18 115.28C212.92 115.28 241.08 143.44 241.08 178.18Z" fill="#FAA62C"/>
<path d="M136.61 152.91C143.85 141.05 156.01 132.51 170.24 130.17" stroke="#C62026" stroke-width="2.975" stroke-miterlimit="10" stroke-linecap="round" stroke-linejoin="round"/>
<path d="M223.45 196.04C220.38 203.79 215.38 210.57 209.04 215.78" stroke="#C62026" stroke-width="2.975" stroke-miterlimit="10" stroke-linecap="round" stroke-linejoin="round"/>
<path d="M178.18 129.52C205.01 129.52 226.84 151.35 226.84 178.18" stroke="#C62026" stroke-width="2.975" stroke-miterlimit="10" stroke-linecap="round" stroke-linejoin="round"/>
<path d="M140.56 221.75C128.34 211.18 120.59 195.57 120.59 178.18C120.59 162.89 126.58 148.97 136.34 138.64" stroke="#C62026" stroke-width="2.975" stroke-miterlimit="10" stroke-linecap="round" stroke-linejoin="round"/>
<path d="M178.18 235.77C167.68 235.77 157.84 232.95 149.35 228.02" stroke="#C62026" stroke-width="2.975" stroke-miterlimit="10" stroke-linecap="round" stroke-linejoin="round"/>
<path d="M235.2 186.33C232.72 203.77 222.39 218.73 207.92 227.49" stroke="#C62026" stroke-width="2.975" stroke-miterlimit="10" stroke-linecap="round" stroke-linejoin="round"/>
<path d="M145.02 131.12C154.4 124.49 165.84 120.59 178.18 120.59C209.94 120.59 235.77 146.42 235.77 178.18" stroke="#C62026" stroke-width="2.975" stroke-miterlimit="10" stroke-linecap="round" stroke-linejoin="round"/>
<path d="M211.14 178.18C211.14 196.38 196.39 211.13 178.18 211.13C159.98 211.13 145.23 196.38 145.23 178.18C145.23 159.98 159.98 145.23 178.18 145.23C196.39 145.23 211.14 159.98 211.14 178.18Z" fill="#FED800"/>
</g>
<defs>
<filter id="filter0_d_3_24607" x="0.512497" y="0.512501" width="355.345" height="346.995" filterUnits="userSpaceOnUse" color-interpolation-filters="sRGB">
<feFlood flood-opacity="0" result="BackgroundImageFix"/>
<feColorMatrix in="SourceAlpha" type="matrix" values="0 0 0 0 0 0 0 0 0 0 0 0 0 0 0 0 0 0 127 0" result="hardAlpha"/>
<feOffset/>
<feGaussianBlur stdDeviation="50"/>
<feComposite in2="hardAlpha" operator="out"/>
<feColorMatrix type="matrix" values="0 0 0 0 0.980392 0 0 0 0 0.65098 0 0 0 0 0.172549 0 0 0 0.5 0"/>
<feBlend mode="normal" in2="BackgroundImageFix" result="effect1_dropShadow_3_24607"/>
<feBlend mode="normal" in="SourceGraphic" in2="effect1_dropShadow_3_24607" result="shape"/>
</filter>
</defs>
</svg>
