<svg width="326" height="319" viewBox="0 0 326 319" fill="none" xmlns="http://www.w3.org/2000/svg">
<g filter="url(#filter0_d_3_24607)">
<path d="M110.517 176.679C109.306 172.206 108.665 167.501 108.665 162.652C108.665 153.241 111.086 144.392 115.342 136.681C123.149 122.541 137.121 112.257 153.609 109.484" stroke="#FAA62C" stroke-width="2.975" stroke-miterlimit="10" stroke-linecap="round" stroke-linejoin="round"/>
<path d="M215.874 170.772C211.947 196.654 189.543 216.557 162.57 216.557C141.176 216.557 122.66 204.037 113.955 185.937" stroke="#FAA62C" stroke-width="2.975" stroke-miterlimit="10" stroke-linecap="round" stroke-linejoin="round"/>
<path d="M162.57 108.738C192.3 108.738 216.484 132.922 216.484 162.652" stroke="#FAA62C" stroke-width="2.975" stroke-miterlimit="10" stroke-linecap="round" stroke-linejoin="round"/>
<path d="M101.507 162.652C101.507 141.418 112.4 122.678 128.896 111.728" stroke="#C62026" stroke-width="2.975" stroke-miterlimit="10" stroke-linecap="round" stroke-linejoin="round"/>
<path d="M134.804 217.03C123.326 211.146 113.939 201.728 108.096 190.226" stroke="#C62026" stroke-width="2.975" stroke-miterlimit="10" stroke-linecap="round" stroke-linejoin="round"/>
<path d="M203.562 207.876C201.013 210.185 198.272 212.285 195.37 214.144" stroke="#C62026" stroke-width="2.975" stroke-miterlimit="10" stroke-linecap="round" stroke-linejoin="round"/>
<path d="M170.706 102.126C182.257 103.665 192.797 108.45 201.382 115.536C214.969 126.742 223.641 143.703 223.641 162.652C223.641 175.004 219.954 186.514 213.622 196.133" stroke="#C62026" stroke-width="2.975" stroke-miterlimit="10" stroke-linecap="round" stroke-linejoin="round"/>
<path d="M134.772 108.29C143.116 104.001 152.567 101.588 162.57 101.588" stroke="#C62026" stroke-width="2.975" stroke-miterlimit="10" stroke-linecap="round" stroke-linejoin="round"/>
<path d="M212.989 162.652C212.989 190.498 190.417 213.07 162.57 213.07C134.724 213.07 112.16 190.498 112.16 162.652C112.16 134.805 134.732 112.233 162.57 112.233C190.417 112.233 212.989 134.805 212.989 162.652Z" fill="#FAA62C"/>
<path d="M129.249 142.396C135.053 132.89 144.8 126.044 156.206 124.169" stroke="#C62026" stroke-width="2.975" stroke-miterlimit="10" stroke-linecap="round" stroke-linejoin="round"/>
<path d="M198.857 176.968C196.396 183.18 192.388 188.614 187.307 192.791" stroke="#C62026" stroke-width="2.975" stroke-miterlimit="10" stroke-linecap="round" stroke-linejoin="round"/>
<path d="M162.57 123.648C184.076 123.648 201.574 141.146 201.574 162.652" stroke="#C62026" stroke-width="2.975" stroke-miterlimit="10" stroke-linecap="round" stroke-linejoin="round"/>
<path d="M132.415 197.576C122.62 189.103 116.408 176.591 116.408 162.652C116.408 150.396 121.209 139.238 129.033 130.958" stroke="#C62026" stroke-width="2.975" stroke-miterlimit="10" stroke-linecap="round" stroke-linejoin="round"/>
<path d="M162.57 208.814C154.154 208.814 146.266 206.553 139.461 202.602" stroke="#C62026" stroke-width="2.975" stroke-miterlimit="10" stroke-linecap="round" stroke-linejoin="round"/>
<path d="M208.275 169.185C206.288 183.164 198.007 195.155 186.409 202.177" stroke="#C62026" stroke-width="2.975" stroke-miterlimit="10" stroke-linecap="round" stroke-linejoin="round"/>
<path d="M135.99 124.93C143.509 119.616 152.679 116.49 162.57 116.49C188.028 116.49 208.732 137.194 208.732 162.652" stroke="#C62026" stroke-width="2.975" stroke-miterlimit="10" stroke-linecap="round" stroke-linejoin="round"/>
<path d="M188.99 162.652C188.99 177.24 177.167 189.063 162.57 189.063C147.982 189.063 136.159 177.24 136.159 162.652C136.159 148.063 147.982 136.24 162.57 136.24C177.167 136.24 188.99 148.063 188.99 162.652Z" fill="#FED800"/>
</g>
<defs>
<filter id="filter0_d_3_24607" x="0.0194702" y="0.100988" width="325.11" height="318.417" filterUnits="userSpaceOnUse" color-interpolation-filters="sRGB">
<feFlood flood-opacity="0" result="BackgroundImageFix"/>
<feColorMatrix in="SourceAlpha" type="matrix" values="0 0 0 0 0 0 0 0 0 0 0 0 0 0 0 0 0 0 127 0" result="hardAlpha"/>
<feOffset/>
<feGaussianBlur stdDeviation="50"/>
<feComposite in2="hardAlpha" operator="out"/>
<feColorMatrix type="matrix" values="0 0 0 0 0.980392 0 0 0 0 0.65098 0 0 0 0 0.172549 0 0 0 0.5 0"/>
<feBlend mode="normal" in2="BackgroundImageFix" result="effect1_dropShadow_3_24607"/>
<feBlend mode="normal" in="SourceGraphic" in2="effect1_dropShadow_3_24607" result="shape"/>
</filter>
</defs>
</svg>
