<svg width="56" height="56" viewBox="0 0 56 56" fill="none" xmlns="http://www.w3.org/2000/svg">
<path d="M55.8072 27.9128C55.8072 43.3228 43.3136 55.8256 27.9036 55.8256C12.4936 55.8256 0 43.332 0 27.9128C0 12.5028 12.4936 0.00920868 27.9036 0.00920868C43.3136 0.00920868 55.8072 12.5028 55.8072 27.9128Z" fill="#9BDBF8"/>
<path d="M35.0888 6.0444C19.6788 6.0444 7.1852 18.538 7.1852 33.9572C7.1852 40.848 9.6876 47.1408 13.8184 52.0076C17.9584 54.4272 22.7608 55.8256 27.9036 55.8256C43.3136 55.8256 55.8072 43.332 55.8072 27.9128C55.8072 21.022 53.3048 14.7292 49.174 9.86239C45.034 7.43359 40.2224 6.0444 35.0888 6.0444Z" fill="#048BC4"/>
<path d="M0.837204 21.0956C1.4076 21.3716 1.93201 21.6752 2.33681 22.034C4.84841 24.2604 4.63681 21.9972 6.86321 19.4856C9.08961 16.974 9.5864 14.3888 12.466 18.6576C15.3548 22.9356 9.2368 25.1896 11.96 26.4224C14.674 27.6552 15.9804 29.532 18.0872 31.6388C20.194 33.7548 19.6512 37.1128 20.9116 37.7016C22.172 38.2904 22.5768 37.352 22.6964 34.8404C22.816 32.3196 22.4112 32.2092 24.012 31.5284C25.6128 30.8568 25.7876 31.786 26.8824 34.6564C27.9772 37.5268 29.5964 35.8892 31.2064 35.2176C32.8072 34.546 31.5836 33.0372 31.2248 30.0288C30.8752 27.0204 30.9212 28.3544 28.7224 26.8364C26.5236 25.3184 29.716 24.932 32.5588 23.644C35.3924 22.3652 38.5572 21.7856 40.3604 20.1204C42.1728 18.446 40.3788 17.0476 38.594 15.6492C36.8092 14.2508 39.6612 12.006 41.584 9.92681C43.5068 7.84761 41.0412 6.95521 41.0412 6.95521C41.0412 6.95521 31.418 8.8964 32.1356 7.6084C32.8624 6.3296 29.7804 4.00201 29.7804 4.00201C29.7804 4.00201 29.5504 1.8308 29.0536 0.0275989C28.6672 0.00919888 28.2716 0 27.876 0C14.8396 0.0092 3.8824 8.97921 0.837204 21.0956Z" fill="#97C93D"/>
<path d="M41.0596 6.95521C41.0596 6.95521 31.4364 8.8964 32.154 7.6084C32.384 7.2128 32.2368 6.71601 31.9332 6.21921C23.7084 7.13921 16.5692 11.638 12.098 18.124C12.2176 18.2896 12.3464 18.4644 12.4752 18.6576C15.364 22.9356 9.24601 25.1896 11.9692 26.4224C14.6832 27.6552 15.9896 29.532 18.0964 31.6388C20.2032 33.7548 19.6604 37.1128 20.9208 37.7016C22.1812 38.2904 22.586 37.352 22.7056 34.8404C22.8252 32.3196 22.4204 32.2092 24.0212 31.5284C25.622 30.8568 25.7968 31.786 26.8916 34.6564C27.9864 37.5268 29.6056 35.8892 31.2156 35.2176C32.8164 34.546 31.5928 33.0372 31.234 30.0288C30.8844 27.0204 30.9304 28.3544 28.7316 26.8364C26.5328 25.3184 29.7252 24.932 32.568 23.644C35.4016 22.3652 38.5664 21.7856 40.3696 20.1204C42.182 18.446 40.388 17.0476 38.6032 15.6492C36.8184 14.2508 39.6704 12.006 41.5932 9.92681C43.5252 7.84761 41.0596 6.95521 41.0596 6.95521Z" fill="#5BBA47"/>
<path d="M49.6156 19.826C49.6156 19.826 45.2732 20.9208 46.8556 22.0524C48.438 23.184 47.15 24.564 46.506 24.9596C45.862 25.3552 47.0488 26.3396 49.6156 26.1464C52.1824 25.9532 53.1668 23.0184 52.1824 23C51.198 22.9908 50.6552 20.3136 52.5596 19.826C54.464 19.3384 50.0756 17.9124 50.278 18.6392C50.4712 19.366 49.6156 19.826 49.6156 19.826Z" fill="#5BBA47"/>
<path d="M39.054 47.5916C38.0512 49.0176 35.9628 48.162 35.9628 48.162C35.9628 48.162 27.5724 42.0072 27.8852 46.506C28.198 51.0048 23.828 50.7472 22.172 50.186C20.8012 49.7168 20.562 52.0904 22.862 55.3564C23.0552 55.3932 23.2484 55.43 23.4324 55.4576C23.5704 55.4852 23.7176 55.5036 23.8648 55.522C24.2236 55.5772 24.5916 55.6232 24.9596 55.66C25.0148 55.6692 25.07 55.6692 25.1344 55.6784C25.5208 55.7152 25.9072 55.7428 26.3028 55.7704C26.4132 55.7796 26.5236 55.7796 26.634 55.7888C27.0572 55.8072 27.4804 55.8256 27.9036 55.8256C30.0656 55.8256 32.1724 55.568 34.1872 55.108C35.1256 53.406 37.49 51.842 39.836 53.1484C40.4892 52.8356 41.124 52.5044 41.7496 52.1456C41.3172 49.9928 39.652 46.736 39.054 47.5916Z" fill="#5BBA47"/>
</svg>
