<svg width="58" height="58" viewBox="0 0 58 58" fill="none" xmlns="http://www.w3.org/2000/svg">
<path d="M0 28.9616C0 12.9628 12.9628 0 28.9616 0C44.9604 0 57.9232 12.9628 57.9232 28.9616C57.9232 44.9604 44.9604 57.9232 28.9616 57.9232C12.9628 57.9232 0 44.9512 0 28.9616Z" fill="#D2EDF0"/>
<path d="M6.11801 46.7544C8.59281 49.9192 11.6932 52.5596 15.2536 54.4824H42.6604C46.2208 52.5688 49.3304 49.9284 51.796 46.7544H6.11801Z" fill="#45C1C4"/>
<path d="M2.2908 40.2592H55.6324C56.6628 37.8396 57.362 35.2452 57.6932 32.5312H0.229996C0.561196 35.2452 1.2604 37.8396 2.2908 40.2592Z" fill="#45C1C4"/>
<path d="M0.147202 26.0452H57.776C57.5092 23.3404 56.856 20.7552 55.8992 18.3172H2.024C1.0672 20.7552 0.414001 23.3404 0.147202 26.0452Z" fill="#45C1C4"/>
<path d="M5.612 11.8312H52.3112C50.0296 8.73077 47.15 6.09038 43.8288 4.10318H14.0944C10.7732 6.09038 7.8936 8.72157 5.612 11.8312Z" fill="#45C1C4"/>
<path d="M15.2996 7.96719C17.8848 8.00399 18.86 6.6056 18.8692 5.6488C18.8784 4.2596 17.9492 3.09119 16.6704 2.73239C13.8644 4.04799 11.3068 5.8052 9.08041 7.912L15.2996 7.96719Z" fill="#21428E"/>
<path d="M45.6228 14.5176L54.0224 14.4348C52.9 12.5028 51.566 10.718 50.048 9.108L45.034 9.15402C43.3688 9.17242 42.0348 10.5248 42.0532 12.19C42.0532 13.156 43.0376 14.5544 45.6228 14.5176Z" fill="#21428E"/>
<path d="M0 28.9616C0 30.3508 0.101207 31.7032 0.294407 33.0372L20.8012 33.2304C22.4664 33.2396 23.828 31.9148 23.8372 30.2496C23.8556 28.5844 22.5216 27.2228 20.8564 27.2136L7.19441 27.0848C5.52921 27.0664 4.2044 25.7048 4.2136 24.0488C4.232 22.3928 5.5936 21.0588 7.2588 21.0772L15.5572 21.1508C17.2132 21.16 18.5748 19.7156 18.5932 17.9216C18.6116 16.1276 17.2868 14.6556 15.6216 14.6372L3.87321 14.5268C1.40761 18.7864 0 23.7084 0 28.9616Z" fill="#21428E"/>
<path d="M13.4872 45.5492C13.5056 43.884 12.1624 42.5316 10.5064 42.5132L3.33041 42.4488C4.35161 44.39 5.59361 46.1932 7.01041 47.8492L9.90841 47.8768C12.4936 47.8952 13.478 46.506 13.4872 45.5492Z" fill="#21428E"/>
<path d="M33.4604 29.394L55.0896 29.5964C56.304 29.6056 57.3344 30.4336 57.7944 31.5928C57.868 30.7188 57.9232 29.8448 57.9232 28.9524C57.9232 27.3516 57.7852 25.7784 57.5368 24.2512L54.1696 24.2144L32.9728 24.0212C31.3168 24.012 29.9552 25.346 29.9368 27.002C29.9276 27.968 30.8936 29.3756 33.4604 29.394Z" fill="#21428E"/>
<path d="M57.2332 35.2544C56.6812 35.9076 55.8992 36.3124 55.0252 36.3124L54.0592 36.3032L37.03 36.1376C35.3648 36.1284 34.0124 37.5636 33.994 39.3668C33.9756 41.1608 35.3096 42.6328 36.9656 42.6512L45.264 42.734C46.9292 42.7524 48.2632 44.114 48.2448 45.77C48.2264 47.426 46.8648 48.76 45.2088 48.7416L33.9296 48.6404C32.2644 48.622 30.9028 49.956 30.8844 51.6212C30.8752 53.2772 32.2092 54.6388 33.8652 54.6572L42.1544 54.74C49.7168 50.8576 55.3472 43.7644 57.2332 35.2544Z" fill="#21428E"/>
</svg>
