<svg width="49" height="49" viewBox="0 0 49 49" fill="none" xmlns="http://www.w3.org/2000/svg">
<path d="M48.4287 24.1592C48.4563 37.5268 37.6372 48.392 24.2604 48.4196C10.8928 48.4472 0.0276079 37.628 0.00920796 24.2604C-0.018392 10.8928 10.8008 0.0276527 24.1684 5.27334e-05C37.536 -0.0275472 48.4011 10.7824 48.4287 24.1592Z" fill="#F48579"/>
<path d="M24.1684 5.27334e-05C37.5359 -0.0275472 48.4011 10.7824 48.4287 24.1592C48.4563 37.5268 37.6371 48.392 24.2604 48.4196" fill="#BB493C"/>
<path d="M40.8296 6.59647L27.0572 6.62406C25.9164 6.62406 24.9872 7.56246 24.9872 8.70326C24.9872 9.85326 25.9256 10.7825 27.0756 10.7733L34.8588 10.7641C35.9996 10.7641 36.938 11.6933 36.938 12.8341C36.938 13.9841 36.0088 14.9132 34.868 14.9132L29.1364 14.9224C27.9956 14.9224 27.0572 15.9345 27.0664 17.1765C27.0664 18.4185 27.9956 19.4212 29.1456 19.4212L40.894 19.3936H41.5563C42.6971 19.3936 43.6356 20.424 43.6356 21.7028C43.6356 22.9816 42.7063 24.0212 41.5655 24.0304L26.634 24.058C24.8584 24.058 24.1868 25.024 24.1868 25.6864C24.1868 26.8272 25.1252 27.7564 26.266 27.7564L40.9031 27.7288L45.9079 27.7196L48.1711 27.7104C48.3367 26.5512 48.4287 25.3644 48.4287 24.15C48.4103 17.2316 45.4847 11.0033 40.8296 6.59647Z" fill="#FCBE12"/>
<path d="M15.1524 21.3256L0.174802 21.3624C0.0644022 22.3192 0 23.2852 0 24.2604C0.00919999 27.784 0.772799 31.1328 2.1344 34.1504L11.4632 34.132C12.6132 34.132 13.5332 33.12 13.5332 31.878C13.5332 30.6452 12.604 29.6332 11.454 29.6332L5.7316 29.6424C4.5816 29.6424 3.6524 28.7224 3.6524 27.5724C3.6524 26.4224 4.5816 25.4932 5.72239 25.4932L15.1524 25.4748C16.3024 25.4748 17.2224 24.5364 17.2224 23.3956C17.2316 22.2456 16.3024 21.3256 15.1524 21.3256Z" fill="#C62026"/>
<path d="M16.4496 40.3788C16.4496 39.7164 15.778 38.7504 13.9932 38.7596L4.87601 38.778C5.89721 40.1304 7.0564 41.3632 8.3352 42.4764L14.3704 42.4672C15.5204 42.458 16.4496 41.5288 16.4496 40.3788Z" fill="#C62026"/>
</svg>
